<svg width="154" height="157" viewBox="0 0 154 157" fill="none" xmlns="http://www.w3.org/2000/svg">
<path d="M101.062 0C128.527 0 150.792 22.235 150.792 49.6633C150.792 70.0793 138.454 87.6129 120.82 95.2463L154 157H96.25L65.2633 99.3265H0V0H101.062Z" fill="#6D8EC4"/>
<path d="M73.7917 25.6326C87.967 25.6326 99.4583 37.1087 99.4583 51.2652C99.4583 65.4217 87.967 76.8979 73.7917 76.8979C64.1241 76.8979 55.7103 71.5571 51.3333 63.6716V157H0V49.653C0 45.2347 3.58172 41.653 8 41.653H49.9986C53.8069 32.2606 63.0211 25.6326 73.7917 25.6326Z" fill="#5074B0"/>
<ellipse cx="73.7917" cy="51.2652" rx="25.6667" ry="25.6326" fill="#F0DA87"/>
</svg>